Coordinates
version=1
nRows=11
nColumns=63
inDegrees=yes

Units are S.I. units (second, meters, Newtons, ...)
If the header above contains a line with 'inDegrees', this indicates whether rotational values are in degrees (yes) or radians (no).

endheader
time	pelvis_tilt	pelvis_list	pelvis_rotation	pelvis_tx	pelvis_ty	pelvis_tz	hip_flexion_r	hip_adduction_r	hip_rotation_r	knee_angle_r	knee_angle_r_beta	ankle_angle_r	subtalar_angle_r	mtp_angle_r	hip_flexion_l	hip_adduction_l	hip_rotation_l	knee_angle_l	knee_angle_l_beta	ankle_angle_l	subtalar_angle_l	mtp_angle_l	L5_S1_Flex_Ext	L5_S1_Lat_Bending	L5_S1_axial_rotation	L4_L5_Flex_Ext	L4_L5_Lat_Bending	L4_L5_axial_rotation	L3_L4_Flex_Ext	L3_L4_Lat_Bending	L3_L4_axial_rotation	L2_L3_Flex_Ext	L2_L3_Lat_Bending	L2_L3_axial_rotation	L1_L2_Flex_Ext	L1_L2_Lat_Bending	L1_L2_axial_rotation	L1_T12_Flex_Ext	L1_T12_Lat_Bending	L1_T12_axial_rotation	Abs_r3	Abs_r2	Abs_r1	Abs_t1	Abs_t2	neck_flexion	neck_bending	neck_rotation	arm_flex_r	arm_add_r	arm_rot_r	elbow_flex_r	pro_sup_r	wrist_flex_r	wrist_dev_r	arm_flex_l	arm_add_l	arm_rot_l	elbow_flex_l	pro_sup_l	wrist_flex_l	wrist_dev_l
1.565217	-5.334984	-1.429667	99.952199	0.113619	1.040776	0.448670	-7.904548	-2.625203	8.718697	1.450939	0.025324	22.263527	-12.437218	0.000000	-4.934045	3.699748	-8.105269	8.057292	0.140626	28.849541	11.678992	0.000000	-0.068420	-0.669275	-0.968982	-0.127062	-0.890136	-1.029544	-0.112407	-1.627275	-1.029544	-0.078197	-1.627275	-0.847859	-0.063535	-1.364785	-0.787298	-0.039095	-1.036707	-0.726737	-0.488715	-7.570971	-5.389188	0.000000	0.000000	9.429065	9.886253	17.521329	5.146560	-19.159002	17.922822	85.822609	85.722540	-8.484978	9.110791	-1.910660	-23.764190	4.563282	84.998316	88.849317	-8.242189	3.051848
1.586957	-5.334067	-1.431332	99.955974	0.113442	1.040921	0.449015	-7.837245	-2.633311	8.785613	1.588904	0.027732	22.204542	-12.456291	0.000000	-4.885261	3.708661	-8.095833	8.120624	0.141732	28.788428	11.655428	0.000000	-0.066934	-0.670754	-0.956449	-0.124303	-0.892102	-1.016227	-0.109966	-1.630871	-1.016227	-0.076499	-1.630871	-0.836893	-0.062155	-1.367801	-0.777115	-0.038246	-1.038998	-0.717337	-0.478103	-7.587700	-5.319482	0.000000	0.000000	9.613815	9.634824	17.314160	5.489242	-19.121914	19.313690	86.891137	86.568436	-7.827338	8.093080	-0.650000	-23.632044	6.902319	85.494102	89.035487	-7.151339	4.135967
1.608696	-5.327550	-1.443091	99.875399	0.113352	1.041031	0.449311	-7.733604	-2.646577	8.817687	1.749512	0.030535	22.219558	-12.296500	0.000000	-4.843359	3.725479	-8.115044	8.155672	0.142343	28.734945	11.586376	0.000000	-0.064455	-0.671096	-0.934439	-0.119700	-0.892558	-0.992841	-0.105894	-1.631703	-0.992841	-0.073666	-1.631703	-0.817634	-0.059853	-1.368499	-0.759232	-0.036830	-1.039528	-0.700829	-0.460398	-7.591572	-5.197068	0.000000	0.000000	9.834015	9.379295	17.169046	5.852985	-19.092039	20.732418	87.922891	87.344125	-7.404805	7.324160	0.462306	-23.457236	9.077129	86.080859	89.074469	-5.920654	5.755417
1.630435	-5.321646	-1.451834	99.736989	0.113301	1.041117	0.449526	-7.621659	-2.668174	8.817475	1.914522	0.033415	22.311233	-11.999251	0.000000	-4.826969	3.752878	-8.144963	8.155885	0.142347	28.699140	11.481795	0.000000	-0.063139	-0.670613	-0.906604	-0.117255	-0.891915	-0.963267	-0.103730	-1.630528	-0.963267	-0.072161	-1.630528	-0.793279	-0.058630	-1.367514	-0.736616	-0.036077	-1.038780	-0.679953	-0.450992	-7.586109	-5.042261	0.000000	0.000000	10.080418	9.146289	17.097047	6.219414	-19.049541	22.088174	88.910158	87.935568	-7.193767	6.877236	1.399363	-23.207159	11.016798	86.752338	88.941466	-4.617849	7.843593
1.652174	-5.298445	-1.466343	99.549461	0.113246	1.041148	0.449595	-7.499020	-2.682049	8.800456	2.068871	0.036109	22.492033	-11.579634	0.000000	-4.829512	3.774124	-8.173710	8.118309	0.141691	28.694832	11.332901	0.000000	-0.059704	-0.666743	-0.883898	-0.110877	-0.886768	-0.939142	-0.098088	-1.621118	-0.939142	-0.068236	-1.621118	-0.773411	-0.055442	-1.359622	-0.718167	-0.034115	-1.032785	-0.662923	-0.426463	-7.542328	-4.915975	0.000000	0.000000	10.333880	8.917604	17.149835	6.611373	-19.010632	23.431471	89.798678	88.371181	-7.207409	6.697502	2.043093	-22.857361	12.586508	87.544898	88.680445	-3.254024	10.312981
1.673913	-5.270649	-1.477108	99.317804	0.113218	1.041149	0.449529	-7.377508	-2.697711	8.765964	2.206822	0.038516	22.784152	-11.038991	0.000000	-4.861783	3.796896	-8.220071	8.045810	0.140426	28.730229	11.177297	0.000000	-0.056191	-0.661271	-0.859330	-0.104352	-0.879490	-0.913038	-0.092316	-1.607813	-0.913038	-0.064221	-1.607813	-0.751913	-0.052179	-1.348463	-0.698205	-0.032108	-1.024308	-0.644497	-0.401367	-7.480424	-4.779333	0.000000	0.000000	10.578417	8.721268	17.285238	6.946675	-18.963595	24.647385	90.574791	88.445232	-7.314548	6.743300	2.435629	-22.444182	13.815465	88.379131	88.219015	-1.861597	13.003212
1.695652	-5.230604	-1.483475	99.070188	0.113166	1.041117	0.449286	-7.269476	-2.705061	8.710906	2.311614	0.040345	23.187101	-10.394844	0.000000	-4.922318	3.810246	-8.257418	7.945228	0.138670	28.802251	11.011274	0.000000	-0.051540	-0.652794	-0.846781	-0.095715	-0.868217	-0.899705	-0.084675	-1.587204	-0.899705	-0.058905	-1.587204	-0.740933	-0.047860	-1.331178	-0.688009	-0.029450	-1.011178	-0.635086	-0.368145	-7.384540	-4.709541	0.000000	0.000000	10.790826	8.530189	17.552309	7.228294	-18.927873	25.798849	91.226531	88.264967	-7.579548	7.068550	2.501887	-21.959201	14.590219	89.278768	87.708158	-0.471431	15.844712
1.717391	-5.170015	-1.478401	98.858100	0.113061	1.041081	0.448913	-7.189130	-2.683455	8.593462	2.374786	0.041448	23.676363	-9.677394	0.000000	-5.006485	3.792898	-8.281812	7.830563	0.136669	28.931107	10.897932	0.000000	-0.046902	-0.641387	-0.850625	-0.087101	-0.853045	-0.903789	-0.077055	-1.559468	-0.903789	-0.053604	-1.559468	-0.744297	-0.043553	-1.307916	-0.691133	-0.026800	-0.993508	-0.637969	-0.335015	-7.255497	-4.730920	0.000000	0.000000	10.929879	8.409980	17.917884	7.431459	-18.906150	26.835927	91.687354	87.879531	-7.804331	7.455546	2.308392	-21.444277	14.992266	90.152430	87.215425	0.844266	18.609948
1.739130	-5.104156	-1.479422	98.689121	0.112903	1.041004	0.448419	-7.126581	-2.651157	8.449171	2.394693	0.041795	24.208013	-8.965467	0.000000	-5.089743	3.760433	-8.312637	7.719262	0.134727	29.096690	10.857411	0.000000	-0.040259	-0.629232	-0.871451	-0.074765	-0.836879	-0.925916	-0.066142	-1.529915	-0.925916	-0.046012	-1.529915	-0.762519	-0.037385	-1.283130	-0.708054	-0.023004	-0.974680	-0.653588	-0.287566	-7.117999	-4.846747	0.000000	0.000000	11.010603	8.341270	18.358356	7.546432	-18.894782	27.752557	91.961921	87.406862	-7.993226	7.791690	1.878308	-20.930586	15.096217	90.984199	86.714853	1.834509	21.101302
1.760870	-5.031354	-1.479545	98.577322	0.112675	1.040889	0.447841	-7.093076	-2.602341	8.292501	2.374606	0.041445	24.726406	-8.335630	0.000000	-5.173604	3.709341	-8.333765	7.618443	0.132967	29.279175	10.870819	0.000000	-0.033199	-0.616407	-0.907927	-0.061653	-0.819821	-0.964672	-0.054542	-1.498732	-0.964672	-0.037943	-1.498732	-0.794436	-0.030828	-1.256977	-0.737690	-0.018970	-0.954815	-0.680945	-0.237134	-6.972920	-5.049615	0.000000	0.000000	11.033112	8.338219	18.839817	7.592021	-18.917602	28.577933	92.072600	87.047839	-8.158504	7.944955	1.278781	-20.426259	14.976278	91.731163	86.193544	2.447049	23.226741
1.782609	-4.947868	-1.477643	98.555117	0.112345	1.040727	0.447244	-7.095713	-2.528601	8.112664	2.314685	0.040399	25.185938	-7.839186	0.000000	-5.243596	3.632604	-8.312426	7.549311	0.131760	29.471138	10.925444	0.000000	-0.027355	-0.602710	-0.961759	-0.050801	-0.801604	-1.021869	-0.044942	-1.465428	-1.021869	-0.031264	-1.465428	-0.841539	-0.025402	-1.229045	-0.781429	-0.015631	-0.933597	-0.721319	-0.195394	-6.817971	-5.349015	0.000000	0.000000	11.022819	8.381397	19.332917	7.595927	-19.004906	29.389340	92.047982	86.839802	-8.398645	7.733723	0.566285	-19.936814	14.710681	92.371503	85.662180	2.664557	24.917374
